<svg width="45" height="45" viewBox="0 0 45 45" fill="none" xmlns="http://www.w3.org/2000/svg">
<path d="M22.5 44.8437C18.0808 44.8437 13.7609 43.5333 10.0865 41.0781C6.41207 38.623 3.54821 35.1334 1.85707 31.0506C0.165922 26.9678 -0.276559 22.4752 0.585579 18.1409C1.44772 13.8067 3.57575 9.82541 6.70058 6.70058C9.82541 3.57575 13.8067 1.44771 18.141 0.585574C22.4752 -0.276565 26.9678 0.165916 31.0506 1.85706C35.1334 3.54821 38.623 6.41206 41.0781 10.0865C43.5333 13.7609 44.8437 18.0808 44.8437 22.5C44.8437 28.4259 42.4897 34.1091 38.2994 38.2994C34.1091 42.4897 28.4259 44.8437 22.5 44.8437ZM22.5 3.59374C18.7607 3.59374 15.1054 4.70258 11.9962 6.78002C8.88713 8.85747 6.46387 11.8102 5.0329 15.2649C3.60193 18.7196 3.22753 22.521 3.95703 26.1884C4.68653 29.8559 6.48718 33.2246 9.13126 35.8687C11.7753 38.5128 15.1441 40.3135 18.8116 41.043C22.479 41.7725 26.2804 41.3981 29.7351 39.9671C33.1898 38.5361 36.1425 36.1129 38.22 33.0037C40.2974 29.8946 41.4062 26.2393 41.4062 22.5C41.4062 17.4857 39.4143 12.6769 35.8687 9.13126C32.3231 5.58565 27.5142 3.59374 22.5 3.59374Z" fill="white"/>
<path d="M22.5 24.2187C20.8003 24.2187 19.1388 23.7147 17.7256 22.7704C16.3123 21.8261 15.2109 20.484 14.5604 18.9137C13.91 17.3434 13.7398 15.6155 14.0714 13.9484C14.403 12.2814 15.2214 10.7501 16.4233 9.54829C17.6252 8.34643 19.1564 7.52796 20.8234 7.19637C22.4905 6.86477 24.2184 7.03496 25.7887 7.6854C27.359 8.33584 28.7012 9.43732 29.6454 10.8506C30.5897 12.2638 31.0938 13.9253 31.0938 15.625C31.0938 17.9042 30.1883 20.09 28.5767 21.7017C26.9651 23.3133 24.7792 24.2187 22.5 24.2187ZM22.5 10.4687C21.4802 10.4687 20.4833 10.7711 19.6353 11.3377C18.7874 11.9043 18.1265 12.7096 17.7362 13.6518C17.346 14.594 17.2439 15.6307 17.4428 16.6309C17.6418 17.6311 18.1329 18.5499 18.854 19.271C19.5751 19.9921 20.4939 20.4832 21.4941 20.6822C22.4943 20.8811 23.531 20.779 24.4732 20.3887C25.4154 19.9985 26.2207 19.3376 26.7873 18.4896C27.3538 17.6417 27.6563 16.6448 27.6563 15.625C27.6563 14.2575 27.113 12.946 26.146 11.979C25.179 11.012 23.8675 10.4687 22.5 10.4687Z" fill="white"/>
<path d="M38.9141 36.25C38.6755 36.2516 38.4392 36.2035 38.2202 36.1088C38.0013 36.0142 37.8044 35.8749 37.6422 35.7C35.8179 33.7101 33.6004 32.1204 31.13 31.0317C28.6597 29.943 25.9902 29.3789 23.2906 29.375H21.7094C16.6772 29.3641 11.8384 31.312 8.21719 34.8062C7.88261 35.0823 7.45602 35.2217 7.02298 35.1964C6.58995 35.1711 6.18249 34.9829 5.88236 34.6698C5.58223 34.3566 5.41162 33.9415 5.40475 33.5078C5.39787 33.0741 5.55525 32.6538 5.84531 32.3312C10.1007 28.2182 15.7911 25.9248 21.7094 25.9375H23.2906C26.4638 25.9447 29.6012 26.608 32.5058 27.8857C35.4104 29.1635 38.0193 31.0281 40.1688 33.3625C40.3958 33.6074 40.5467 33.9131 40.6028 34.2423C40.659 34.5715 40.618 34.9099 40.4849 35.2162C40.3518 35.5225 40.1324 35.7834 39.8534 35.967C39.5744 36.1506 39.248 36.2489 38.9141 36.25Z" fill="white"/>
</svg>
