<svg width="41" height="33" viewBox="0 0 41 33" fill="none" xmlns="http://www.w3.org/2000/svg">
<path fill-rule="evenodd" clip-rule="evenodd" d="M0 4.71429C0 3.46398 0.550871 2.26488 1.53143 1.38078C2.51198 0.496683 3.8419 4.2021e-07 5.22862 4.2021e-07H23.7379C24.4923 -0.000286744 25.2378 0.146611 25.9233 0.43061C26.6088 0.714609 27.218 1.12898 27.7091 1.64529L40.3702 14.9655C40.7766 15.3928 41 15.9371 41 16.5C41 17.0629 40.7766 17.6072 40.3702 18.0345L27.7117 31.35C27.2208 31.8675 26.6114 32.2829 25.9254 32.5677C25.2394 32.8526 24.4931 33 23.7379 33H5.22862C3.8419 33 2.51198 32.5033 1.53143 31.6192C0.550871 30.7351 0 29.536 0 28.2857V4.71429ZM25.7614 11.4416C25.8829 11.332 25.9793 11.2019 26.0451 11.0587C26.1109 10.9156 26.1447 10.7621 26.1447 10.6071C26.1447 10.4522 26.1109 10.2987 26.0451 10.1556C25.9793 10.0124 25.8829 9.88229 25.7614 9.77271C25.6399 9.66314 25.4956 9.57621 25.3368 9.51691C25.178 9.45761 25.0078 9.42708 24.8359 9.42708C24.6641 9.42708 24.4939 9.45761 24.3351 9.51691C24.1763 9.57621 24.032 9.66314 23.9105 9.77271L18.3002 14.8335L12.6899 9.77271C12.5683 9.66314 12.424 9.57621 12.2652 9.51691C12.1065 9.45761 11.9363 9.42708 11.7644 9.42708C11.5925 9.42708 11.4223 9.45761 11.2635 9.51691C11.1047 9.57621 10.9605 9.66314 10.8389 9.77271C10.7174 9.88229 10.621 10.0124 10.5552 10.1556C10.4894 10.2987 10.4556 10.4522 10.4556 10.6071C10.4556 10.7621 10.4894 10.9156 10.5552 11.0587C10.621 11.2019 10.7174 11.332 10.8389 11.4416L16.4518 16.5L10.8389 21.5584C10.5935 21.7797 10.4556 22.0799 10.4556 22.3929C10.4556 22.7058 10.5935 23.006 10.8389 23.2273C11.0844 23.4486 11.4173 23.5729 11.7644 23.5729C12.1115 23.5729 12.4444 23.4486 12.6899 23.2273L18.3002 18.1665L23.9105 23.2273C24.1559 23.4486 24.4888 23.5729 24.8359 23.5729C25.183 23.5729 25.5159 23.4486 25.7614 23.2273C26.0068 23.006 26.1447 22.7058 26.1447 22.3929C26.1447 22.0799 26.0068 21.7797 25.7614 21.5584L20.1485 16.5L25.7614 11.4416Z" fill="white"/>
</svg>
