<svg width="295" height="298" viewBox="0 0 295 298" fill="none" xmlns="http://www.w3.org/2000/svg">
<g clip-path="url(#clip0_3_60)">
<rect width="295" height="298" fill="white"/>
<rect width="295" height="298" fill="#1D0621"/>
<g filter="url(#filter0_f_3_60)">
<path d="M119 63C119 54.0998 115.745 45.3996 109.647 37.9993C103.548 30.5991 94.8802 24.8314 84.7389 21.4254C74.5976 18.0195 63.4384 17.1283 52.6725 18.8647C41.9065 20.601 32.0174 24.8868 24.2556 31.1802L43.1196 46.4754C47.1505 43.2071 52.2861 40.9814 57.8771 40.0797C63.468 39.178 69.2632 39.6408 74.5298 41.4095C79.7963 43.1783 84.2977 46.1736 87.4648 50.0167C90.6318 53.8598 92.3222 58.378 92.3222 63H119Z" fill="#00E124"/>
</g>
<g filter="url(#filter1_f_3_60)">
<path d="M29.4436 98.5317C38.1108 103.993 48.5808 107.248 59.5296 107.885C70.4783 108.521 81.4141 106.511 90.9539 102.109C100.494 97.7062 108.209 91.1088 113.125 83.1508C118.04 75.1929 119.935 66.2318 118.569 57.4008L92.0982 60.0922C92.8075 64.6783 91.8236 69.332 89.2709 73.4647C86.7183 77.5974 82.7115 81.0236 77.7573 83.3099C72.8031 85.5963 67.124 86.6401 61.4381 86.3095C55.7522 85.9788 50.3149 84.2885 45.8139 81.4523L29.4436 98.5317Z" fill="#00E124"/>
</g>
<g filter="url(#filter2_f_3_60)">
<path d="M153 138.572C161.667 144.033 172.137 147.288 183.086 147.925C194.035 148.561 204.97 146.551 214.51 142.149C224.05 137.746 231.766 131.149 236.681 123.191C241.596 115.233 243.491 106.272 242.125 97.4409L215.655 100.132C216.364 104.718 215.38 109.372 212.827 113.505C210.275 117.637 206.268 121.064 201.314 123.35C196.36 125.636 190.68 126.68 184.995 126.349C179.309 126.019 173.871 124.329 169.37 121.492L153 138.572Z" fill="#1F12B6"/>
</g>
<g filter="url(#filter3_f_3_60)">
<path d="M127 153C127 144.1 123.745 135.4 117.647 127.999C111.548 120.599 102.88 114.831 92.7389 111.425C82.5976 108.019 71.4384 107.128 60.6725 108.865C49.9065 110.601 40.0174 114.887 32.2556 121.18L71.5 153H127Z" fill="#00E124"/>
</g>
<g filter="url(#filter4_f_3_60)">
<path d="M182 194C182 185.1 178.745 176.4 172.647 168.999C166.548 161.599 157.88 155.831 147.739 152.425C137.598 149.019 126.438 148.128 115.672 149.865C104.907 151.601 95.0174 155.887 87.2556 162.18L126.5 194H182Z" fill="#1200E1"/>
</g>
<g filter="url(#filter5_f_3_60)">
<path d="M115 138C115 129.1 111.745 120.4 105.647 112.999C99.5481 105.599 90.8802 99.8314 80.7389 96.4254C70.5976 93.0195 59.4384 92.1283 48.6725 93.8647C37.9065 95.601 28.0174 99.8868 20.2556 106.18L59.5 138H115Z" fill="#1200E1" fill-opacity="0.5"/>
</g>
<g filter="url(#filter6_f_3_60)">
<path d="M111 204C111 195.1 107.745 186.4 101.647 178.999C95.5481 171.599 86.8802 165.831 76.7389 162.425C66.5976 159.019 55.4384 158.128 44.6725 159.865C33.9065 161.601 24.0174 165.887 16.2556 172.18L55.5 204H111Z" fill="#E1001B"/>
</g>
<g filter="url(#filter7_f_3_60)">
<path d="M97 97C97 88.0998 93.745 79.3996 87.6466 71.9993C81.5481 64.5991 72.8802 58.8314 62.7389 55.4254C52.5976 52.0195 41.4384 51.1283 30.6725 52.8647C19.9065 54.601 10.0174 58.8868 2.25557 65.1802L41.5 97H97Z" fill="#E1001B"/>
</g>
<g filter="url(#filter8_f_3_60)">
<path d="M115 246C115 237.1 111.745 228.4 105.647 220.999C99.5481 213.599 90.8802 207.831 80.7389 204.425C70.5976 201.019 59.4384 200.128 48.6725 201.865C37.9065 203.601 28.0174 207.887 20.2556 214.18L59.5 246H115Z" fill="#E100CB"/>
</g>
<g filter="url(#filter9_f_3_60)">
<path d="M178 82C178 73.0998 174.745 64.3996 168.647 56.9993C162.548 49.5991 153.88 43.8314 143.739 40.4254C133.598 37.0195 122.438 36.1283 111.672 37.8647C100.907 39.601 91.0174 43.8868 83.2556 50.1802L122.5 82H178Z" fill="#E100CB"/>
</g>
<g filter="url(#filter10_f_3_60)">
<path d="M186 233C186 224.1 182.745 215.4 176.647 207.999C170.548 200.599 161.88 194.831 151.739 191.425C141.598 188.019 130.438 187.128 119.672 188.865C108.907 190.601 99.0174 194.887 91.2556 201.18L130.5 233H186Z" fill="#E100CB"/>
</g>
<g filter="url(#filter11_f_3_60)">
<path d="M175 127C175 118.1 171.745 109.4 165.647 101.999C159.548 94.5991 150.88 88.8314 140.739 85.4254C130.598 82.0195 119.438 81.1283 108.672 82.8647C97.9065 84.601 88.0174 88.8868 80.2556 95.1802L119.5 127H175Z" fill="#00E1C6"/>
</g>
<g filter="url(#filter12_f_3_60)">
<path d="M130 75C130 66.0998 126.745 57.3996 120.647 49.9993C114.548 42.5991 105.88 36.8314 95.7389 33.4254C85.5976 30.0195 74.4384 29.1283 63.6725 30.8647C52.9065 32.601 43.0174 36.8868 35.2556 43.1802L74.5 75H130Z" fill="#CFE100"/>
</g>
<g filter="url(#filter13_f_3_60)">
<path d="M130 183C130 174.1 126.745 165.4 120.647 157.999C114.548 150.599 105.88 144.831 95.7389 141.425C85.5976 138.019 74.4384 137.128 63.6725 138.865C52.9065 140.601 43.0174 144.887 35.2556 151.18L74.5 183H130Z" fill="#CFE100"/>
</g>
</g>
<defs>
<filter id="filter0_f_3_60" x="-25.7444" y="-32" width="194.744" height="145" filterUnits="userSpaceOnUse" color-interpolation-filters="sRGB">
<feFlood flood-opacity="0" result="BackgroundImageFix"/>
<feBlend mode="normal" in="SourceGraphic" in2="BackgroundImageFix" result="shape"/>
<feGaussianBlur stdDeviation="25" result="effect1_foregroundBlur_3_60"/>
</filter>
<filter id="filter1_f_3_60" x="-20.5564" y="7.40082" width="189.556" height="150.599" filterUnits="userSpaceOnUse" color-interpolation-filters="sRGB">
<feFlood flood-opacity="0" result="BackgroundImageFix"/>
<feBlend mode="normal" in="SourceGraphic" in2="BackgroundImageFix" result="shape"/>
<feGaussianBlur stdDeviation="25" result="effect1_foregroundBlur_3_60"/>
</filter>
<filter id="filter2_f_3_60" x="103" y="47.4409" width="189.556" height="150.599" filterUnits="userSpaceOnUse" color-interpolation-filters="sRGB">
<feFlood flood-opacity="0" result="BackgroundImageFix"/>
<feBlend mode="normal" in="SourceGraphic" in2="BackgroundImageFix" result="shape"/>
<feGaussianBlur stdDeviation="25" result="effect1_foregroundBlur_3_60"/>
</filter>
<filter id="filter3_f_3_60" x="-17.7444" y="58" width="194.744" height="145" filterUnits="userSpaceOnUse" color-interpolation-filters="sRGB">
<feFlood flood-opacity="0" result="BackgroundImageFix"/>
<feBlend mode="normal" in="SourceGraphic" in2="BackgroundImageFix" result="shape"/>
<feGaussianBlur stdDeviation="25" result="effect1_foregroundBlur_3_60"/>
</filter>
<filter id="filter4_f_3_60" x="37.2556" y="99" width="194.744" height="145" filterUnits="userSpaceOnUse" color-interpolation-filters="sRGB">
<feFlood flood-opacity="0" result="BackgroundImageFix"/>
<feBlend mode="normal" in="SourceGraphic" in2="BackgroundImageFix" result="shape"/>
<feGaussianBlur stdDeviation="25" result="effect1_foregroundBlur_3_60"/>
</filter>
<filter id="filter5_f_3_60" x="-29.7444" y="43" width="194.744" height="145" filterUnits="userSpaceOnUse" color-interpolation-filters="sRGB">
<feFlood flood-opacity="0" result="BackgroundImageFix"/>
<feBlend mode="normal" in="SourceGraphic" in2="BackgroundImageFix" result="shape"/>
<feGaussianBlur stdDeviation="25" result="effect1_foregroundBlur_3_60"/>
</filter>
<filter id="filter6_f_3_60" x="-33.7444" y="109" width="194.744" height="145" filterUnits="userSpaceOnUse" color-interpolation-filters="sRGB">
<feFlood flood-opacity="0" result="BackgroundImageFix"/>
<feBlend mode="normal" in="SourceGraphic" in2="BackgroundImageFix" result="shape"/>
<feGaussianBlur stdDeviation="25" result="effect1_foregroundBlur_3_60"/>
</filter>
<filter id="filter7_f_3_60" x="-47.7444" y="2" width="194.744" height="145" filterUnits="userSpaceOnUse" color-interpolation-filters="sRGB">
<feFlood flood-opacity="0" result="BackgroundImageFix"/>
<feBlend mode="normal" in="SourceGraphic" in2="BackgroundImageFix" result="shape"/>
<feGaussianBlur stdDeviation="25" result="effect1_foregroundBlur_3_60"/>
</filter>
<filter id="filter8_f_3_60" x="-29.7444" y="151" width="194.744" height="145" filterUnits="userSpaceOnUse" color-interpolation-filters="sRGB">
<feFlood flood-opacity="0" result="BackgroundImageFix"/>
<feBlend mode="normal" in="SourceGraphic" in2="BackgroundImageFix" result="shape"/>
<feGaussianBlur stdDeviation="25" result="effect1_foregroundBlur_3_60"/>
</filter>
<filter id="filter9_f_3_60" x="33.2556" y="-13" width="194.744" height="145" filterUnits="userSpaceOnUse" color-interpolation-filters="sRGB">
<feFlood flood-opacity="0" result="BackgroundImageFix"/>
<feBlend mode="normal" in="SourceGraphic" in2="BackgroundImageFix" result="shape"/>
<feGaussianBlur stdDeviation="25" result="effect1_foregroundBlur_3_60"/>
</filter>
<filter id="filter10_f_3_60" x="41.2556" y="138" width="194.744" height="145" filterUnits="userSpaceOnUse" color-interpolation-filters="sRGB">
<feFlood flood-opacity="0" result="BackgroundImageFix"/>
<feBlend mode="normal" in="SourceGraphic" in2="BackgroundImageFix" result="shape"/>
<feGaussianBlur stdDeviation="25" result="effect1_foregroundBlur_3_60"/>
</filter>
<filter id="filter11_f_3_60" x="30.2556" y="32" width="194.744" height="145" filterUnits="userSpaceOnUse" color-interpolation-filters="sRGB">
<feFlood flood-opacity="0" result="BackgroundImageFix"/>
<feBlend mode="normal" in="SourceGraphic" in2="BackgroundImageFix" result="shape"/>
<feGaussianBlur stdDeviation="25" result="effect1_foregroundBlur_3_60"/>
</filter>
<filter id="filter12_f_3_60" x="-14.7444" y="-20" width="194.744" height="145" filterUnits="userSpaceOnUse" color-interpolation-filters="sRGB">
<feFlood flood-opacity="0" result="BackgroundImageFix"/>
<feBlend mode="normal" in="SourceGraphic" in2="BackgroundImageFix" result="shape"/>
<feGaussianBlur stdDeviation="25" result="effect1_foregroundBlur_3_60"/>
</filter>
<filter id="filter13_f_3_60" x="-14.7444" y="88" width="194.744" height="145" filterUnits="userSpaceOnUse" color-interpolation-filters="sRGB">
<feFlood flood-opacity="0" result="BackgroundImageFix"/>
<feBlend mode="normal" in="SourceGraphic" in2="BackgroundImageFix" result="shape"/>
<feGaussianBlur stdDeviation="25" result="effect1_foregroundBlur_3_60"/>
</filter>
<clipPath id="clip0_3_60">
<rect width="295" height="298" fill="white"/>
</clipPath>
</defs>
</svg>
